<svg width="24" height="24" viewBox="0 0 24 24" fill="none" xmlns="http://www.w3.org/2000/svg">
<path d="M22.4766 10.4299V17.6252C22.4766 18.3152 22.2027 18.9772 21.7148 19.4651C21.227 19.953 20.565 20.2268 19.875 20.2268H4.125C3.43502 20.2268 2.77304 19.953 2.28516 19.4651C1.79727 18.9772 1.52344 18.3152 1.52344 17.6252V10.4299H22.4766ZM6 12.6331C5.62082 12.6331 5.25738 12.7839 4.98926 13.052C4.72114 13.3201 4.57031 13.6836 4.57031 14.0627V15.0002C4.57031 15.3794 4.72114 15.7429 4.98926 16.011C5.25738 16.2791 5.62082 16.4299 6 16.4299H8.25C8.62918 16.4299 8.99262 16.2791 9.26074 16.011C9.52886 15.7429 9.67969 15.3794 9.67969 15.0002V14.0627C9.67969 13.6836 9.52886 13.3201 9.26074 13.052C8.99262 12.7839 8.62918 12.6331 8.25 12.6331H6Z" fill="white" stroke="white" stroke-width="0.046875"/>
<path d="M4.125 3.77368H19.875C20.565 3.77368 21.227 4.04751 21.7148 4.5354C22.2027 5.02329 22.4766 5.68527 22.4766 6.37524V7.57056H1.52344V6.37524C1.52344 5.68527 1.79727 5.02329 2.28516 4.5354C2.77304 4.04751 3.43502 3.77368 4.125 3.77368Z" fill="white" stroke="white" stroke-width="0.046875"/>
</svg>
