<svg width="24" height="24" viewBox="0 0 24 24" fill="none" xmlns="http://www.w3.org/2000/svg">
<path d="M2.625 3.02368H21.375C21.6672 3.02368 21.9477 3.13936 22.1543 3.34595C22.3609 3.55253 22.4766 3.83309 22.4766 4.12524V19.8752C22.4766 20.1674 22.3609 20.448 22.1543 20.6545C21.9477 20.8611 21.6672 20.9768 21.375 20.9768H2.625C2.33285 20.9768 2.05229 20.8611 1.8457 20.6545C1.63912 20.448 1.52344 20.1674 1.52344 19.8752V4.12524C1.52344 3.83309 1.63912 3.55253 1.8457 3.34595C2.05229 3.13936 2.33285 3.02368 2.625 3.02368ZM9.01465 9.45142L2.98438 14.8127L2.97656 14.8196V18.9377C2.97656 19.0931 3.03855 19.2419 3.14844 19.3518C3.25832 19.4617 3.4071 19.5237 3.5625 19.5237H8.08984L8.09668 19.5168L13.5908 14.0208L13.6074 14.0042L13.5908 13.9875L9.04688 9.45239L9.03125 9.43677L9.01465 9.45142ZM15.543 5.98657C15.0139 6.03505 14.5183 6.26715 14.1426 6.64282C13.7669 7.0185 13.5348 7.51415 13.4863 8.04321C13.4438 8.50848 13.545 8.97576 13.7773 9.3811C14.0098 9.78654 14.362 10.1105 14.7852 10.3088C15.2083 10.5071 15.6823 10.5702 16.1426 10.4895C16.6029 10.4088 17.027 10.1881 17.3574 9.85767C17.6879 9.52723 17.9086 9.10311 17.9893 8.64282C18.0699 8.18257 18.0069 7.7085 17.8086 7.2854C17.6102 6.86226 17.2863 6.51002 16.8809 6.27759C16.4755 6.04523 16.0082 5.94402 15.543 5.98657ZM21.0234 15.6379L21.0146 15.6311L17.2256 12.4729L17.209 12.4592L17.1943 12.4749L10.1846 19.4836L10.1445 19.5237H20.4375C20.5929 19.5237 20.7417 19.4617 20.8516 19.3518C20.9614 19.2419 21.0234 19.0931 21.0234 18.9377V15.6379Z" fill="white" stroke="white" stroke-width="0.046875"/>
</svg>
