<svg width="61" height="61" viewBox="0 0 61 61" fill="none" xmlns="http://www.w3.org/2000/svg">
<rect width="60.3637" height="60.3636" rx="16" fill="#001E36" fill-opacity="0.2"/>
<path d="M21.0776 16.0225C28.9687 16.0225 33.4115 19.7166 33.4115 25.9082C33.4115 33.1326 27.3894 36.0398 21.7443 36.0398H17.9244V43.849H10.1973V16.0225H21.0776ZM17.9244 22.6239V29.433H21.329C23.6952 29.433 25.3565 28.4766 25.3565 26.0667C25.3565 23.8644 23.9466 22.6184 21.4929 22.6184H17.919L17.9244 22.6239Z" fill="#30A8FF"/>
<path d="M34.9856 42.4776L35.0293 36.0402C37.2316 37.4938 40.3028 38.4064 42.4231 38.4064C43.8768 38.4064 44.5435 37.9911 44.5435 37.2424C44.5435 36.4118 43.6309 36.0784 41.8876 35.5374C38.5213 34.5428 34.8271 33.1712 34.8271 28.7666C34.8271 24.362 38.5213 21.7881 43.8822 21.7881C46.4179 21.7881 48.4945 22.1597 50.3197 22.9521L50.276 29.0999C48.8224 28.2256 45.9589 27.4386 44.0899 27.4386C42.7183 27.4386 42.1772 27.854 42.1772 28.4769C42.1772 29.2256 42.8439 29.4333 44.8331 30.0563C48.6967 31.2202 51.9373 32.4662 51.9373 36.991C51.9373 41.5158 48.407 44.2154 42.8822 44.2154C39.9749 44.2154 37.2316 43.7181 34.9911 42.4722L34.9856 42.4776Z" fill="#30A8FF"/>
</svg>
