<svg width="61" height="61" viewBox="0 0 61 61" fill="none" xmlns="http://www.w3.org/2000/svg">
<rect width="60.36" height="60.36" rx="16" fill="#00005D" fill-opacity="0.2"/>
<path d="M23.2731 16.0215C31.1638 16.0215 35.6063 19.7154 35.6063 25.9066C35.6063 33.1306 29.5845 36.0377 23.9398 36.0377H20.1202V43.8463H12.3989V16.0215H23.2786H23.2731ZM20.1202 22.6225V29.4312H23.5245C25.8906 29.4312 27.5518 28.4749 27.5518 26.0651C27.5518 23.8629 26.1419 22.617 23.6884 22.617H20.1147L20.1202 22.6225Z" fill="#9A99FF"/>
<path d="M46.3766 21.792C48.0815 21.792 49.4476 21.9996 50.0705 22.2073V27.8575C49.5732 27.7318 48.617 27.6499 47.8301 27.6499C46.2946 27.6499 45.4203 27.7755 44.6334 28.0651V43.8464H37.3657V23.6226C39.9832 22.4587 42.6006 21.7975 46.3766 21.7975V21.792Z" fill="#9A99FF"/>
</svg>
