<svg width="48" height="48" viewBox="0 0 48 48" fill="none" xmlns="http://www.w3.org/2000/svg">
<path d="M24 0C10.752 0 0 10.752 0 24C0 37.248 10.752 48 24 48C37.248 48 48 37.248 48 24C48 10.752 37.272 0 24 0ZM31.2 29.352L24.24 33.36C23.376 33.864 22.416 34.104 21.48 34.104C20.52 34.104 19.584 33.864 18.72 33.36C16.992 32.352 15.96 30.576 15.96 28.56V20.52C15.96 18.528 16.992 16.728 18.72 15.72C20.448 14.712 22.512 14.712 24.264 15.72L31.224 19.728C32.952 20.736 33.984 22.512 33.984 24.528C33.984 26.544 32.952 28.344 31.2 29.352Z" fill="#C2C2C2"/>
</svg>
