<svg width="48" height="48" viewBox="0 0 48 48" fill="none" xmlns="http://www.w3.org/2000/svg">
<path d="M24 0C37.2548 0 48 10.7452 48 24C48 37.2548 37.2548 48 24 48C10.7452 48 0 37.2548 0 24C0 10.7452 10.7452 0 24 0ZM24.791 8.7998C16.9249 8.7998 10.5227 15.2018 10.5195 23.0703C10.5185 25.5855 11.1759 28.0408 12.4248 30.2051L10.4004 37.5996L17.9658 35.6152C20.0502 36.7521 22.3968 37.3517 24.7852 37.3525H24.791C32.6594 37.3493 39.0593 30.9478 39.0625 23.0811C39.0639 19.2681 37.58 15.6827 34.8857 12.9854C32.1914 10.288 28.6086 8.80147 24.791 8.7998Z" fill="#C2C2C2"/>
<path fill-rule="evenodd" clip-rule="evenodd" d="M24.7949 11.2104C27.9632 11.2115 30.9422 12.4469 33.1816 14.689C35.421 16.931 36.6535 19.9112 36.6523 23.0806C36.6497 29.6209 31.3286 34.9417 24.791 34.9419H24.7861C22.6577 34.9411 20.5702 34.3692 18.749 33.2886L18.3154 33.0317L13.8262 34.2095L15.0244 29.8325L14.7422 29.3833C13.5549 27.4949 12.9278 25.312 12.9287 23.0708C12.9315 16.5311 18.2524 11.2106 24.7949 11.2104ZM19.7383 16.48C19.5006 16.48 19.114 16.5693 18.7871 16.9263C18.4602 17.2833 17.5391 18.146 17.5391 19.9009C17.5391 21.6558 18.8165 23.351 18.9951 23.5894C19.1734 23.8274 21.5098 27.4295 25.0869 28.9741C25.9374 29.3414 26.6013 29.5608 27.1191 29.7251C27.9732 29.9965 28.751 29.9585 29.3652 29.8667C30.0504 29.7644 31.4752 29.0033 31.7725 28.1704C32.0693 27.3376 32.0695 26.6238 31.9805 26.4751C31.8914 26.3264 31.6534 26.2376 31.2969 26.0591C30.9404 25.8806 29.1879 25.0183 28.8604 24.8989C28.5336 24.78 28.2953 24.7198 28.0576 25.0767C27.8199 25.4336 27.1367 26.2371 26.9287 26.4751C26.7207 26.7129 26.5127 26.7425 26.1563 26.564C25.7993 26.3854 24.6507 26.0089 23.2891 24.7944C22.2292 23.849 21.5128 22.6819 21.3047 22.3247C21.0967 21.9677 21.2824 21.774 21.4609 21.5962C21.6213 21.4364 21.8179 21.1803 21.9961 20.9722C22.1742 20.7642 22.2338 20.615 22.3525 20.3774C22.4713 20.1394 22.4123 19.9309 22.3232 19.7524C22.2341 19.574 21.5209 17.8192 21.2236 17.105C20.9344 16.4102 20.6407 16.5035 20.4219 16.4927C20.2142 16.4822 19.9759 16.48 19.7383 16.48Z" fill="#C2C2C2"/>
</svg>
